<?xml version="1.0" encoding="UTF-8" standalone="no"?>
<!DOCTYPE svg PUBLIC "-//W3C//DTD SVG 1.1//EN" "http://www.w3.org/Graphics/SVG/1.1/DTD/svg11.dtd">
<svg width="100%" height="100%" viewBox="0 0 1500 400" version="1.1" xmlns="http://www.w3.org/2000/svg" xmlns:xlink="http://www.w3.org/1999/xlink" xml:space="preserve" xmlns:serif="http://www.serif.com/" style="fill-rule:evenodd;clip-rule:evenodd;stroke-linecap:round;stroke-linejoin:round;stroke-miterlimit:1.5;">
    <circle cx="70.648" cy="311.604" r="20.478" style="fill:rgb(44,42,41);"/>
    <circle cx="1299.57" cy="67.15" r="21.758" style="fill:rgb(44,42,41);"/>
    <text x="69.625px" y="264.505px" style="font-family:'ArialMT', 'Arial', sans-serif;font-size:12px;">Łódź</text>
    <text x="1249.15px" y="39.249px" style="font-family:'ArialMT', 'Arial', sans-serif;font-size:12px;">W<tspan x="1260.03px 1266.7px " y="39.249px 39.249px ">ar</tspan>szawa</text>
    <path d="M91.126,311.604L325.597,235.836L760.751,128.328L1277.82,67.15" style="fill:none;stroke:rgb(255,0,0);stroke-width:2.5px;"/>
    <circle cx="858.372" cy="208.159" r="18.782" style="fill:rgb(212,15,125);stroke:rgb(212,15,125);stroke-width:2.5px;"/>
    <g transform="matrix(1,0,0,1,-16.5404,4.31124)">
        <circle cx="919.198" cy="310.324" r="19.198" style="fill:rgb(250,225,0);stroke:rgb(250,225,0);stroke-width:2.5px;"/>
    </g>
    <g transform="matrix(1,0,0,1,-83.0548,3.83255)">
        <text x="1006.49px" y="300.341px" style="font-family:'ArialMT', 'Arial', sans-serif;font-size:12px;">Suntago</text>
    </g>
    <g transform="matrix(1,0,0,1,-103.848,3.07167)">
        <text x="893.857px" y="196.928px" style="font-family:'ArialMT', 'Arial', sans-serif;font-size:12px;">Bednary</text>
    </g>
    <g transform="matrix(1,0,0,1,-23.5495,-10.2389)">
        <text x="197.611px" y="264.505px" style="font-family:'ArialMT', 'Arial', sans-serif;font-size:12px;">Autostrada <tspan x="258.32px 266.324px " y="264.505px 264.505px ">A2</tspan></text>
    </g>
    <path d="M1299.57,88.908L919.198,269.625L485.324,388.396L369.625,438.567" style="fill:none;stroke:rgb(250,225,0);stroke-width:2.5px;"/>
    <g transform="matrix(1,0,0,1,18.43,0.544122)">
        <text x="652.218px" y="310.58px" style="font-family:'ArialMT', 'Arial', sans-serif;font-size:12px;">T<tspan x="659.103px 663.099px " y="310.58px 310.58px ">ra</tspan>sa S8</text>
    </g>
    <circle cx="949.971" cy="178.299" r="13.111" style="fill:rgb(0,159,223);"/>
    <g transform="matrix(1,0,0,1,5.50439,22.3822)">
        <text x="957.338px" y="146.758px" style="font-family:'ArialMT', 'Arial', sans-serif;font-size:12px;">Żyrardów</text>
    </g>
    <path d="M873.379,115.017L921.855,191.41L963.083,250.171" style="fill:none;stroke:rgb(0,25,255);stroke-width:2.5px;"/>
    <g transform="matrix(0.561695,0.827344,-0.827344,0.561695,486.95,-545.662)">
        <text x="886.689px" y="49.488px" style="font-family:'ArialMT', 'Arial', sans-serif;font-size:12px;">Obwodnica Żyrardowa</text>
    </g>
</svg>
